# xmcd
#
# Track frame offsets: 
#        150
#        11800
#        31572
#        45307
#        66060
#        87955
#        104335
#        119095
#        130892
#        148732
#        163690
#
# Disc length: 2385 seconds
#
# Revision: 7
# Processed by: cddbd v1.5.2PL0 Copyright (c) Steve Scherf et al.
# Submitted via: ExactAudioCopyFreeDBPlugin 1.0
#
DISCID=90094f0b
DTITLE=Various Artist - Putumayo presents Women Of The World Acoustic
DYEAR=2007
DGENRE=World
TTITLE0=Sandrine Kiberlain - M'envoyer des Fleurs (France)
TTITLE1=Marta Topferova - Grano de Arena (Czech Republic)
TTITLE2=Emiliana Torrini - Sunnyroad (Iceland - Italy)
TTITLE3=Luca Mundaca - Não Se Apavore (Brazil)
TTITLE4=Lura - Bida Mariadu (Cape Verde)
TTITLE5=Mona - Sekna (Algeria)
TTITLE6=Tamara Obrovac - Tuca' La Louna (Croatia)
TTITLE7=Anastasia Moutsatsou - Ola Ta Diskola (Greece)
TTITLE8=Marta Gómez - Paula Ausente (Colombia)
TTITLE9=Kaïssa - Wa (Cameroon)
TTITLE10=The Wailin' Jennys - One Voice (Canada)
EXTD=Label: Putumayo World MusicPUT 261-2 YEAR: 2007
EXTT0=
EXTT1=
EXTT2=
EXTT3=
EXTT4=
EXTT5=
EXTT6=
EXTT7=
EXTT8=
EXTT9=
EXTT10=
PLAYORDER=
